<svg width="16" height="15" viewBox="0 0 16 15" fill="none" xmlns="http://www.w3.org/2000/svg">
<path d="M11.0968 13.5149C10.6692 13.5149 10.3226 13.8473 10.3226 14.2574C10.3226 14.6675 10.6692 15 11.0968 15L11.0968 13.5149ZM11.0968 -4.85056e-07C10.6692 -4.66367e-07 10.3226 0.332475 10.3226 0.742574C10.3226 1.15267 10.6692 1.48515 11.0968 1.48515L11.0968 -4.85056e-07ZM1.25037 6.91446C0.913239 6.66228 0.426747 6.7199 0.16377 7.04327C-0.0991972 7.36663 -0.039068 7.83327 0.298077 8.08555L1.25037 6.91446ZM5.45936 11.9469C5.79649 12.1991 6.28296 12.1415 6.54598 11.8181C6.8089 11.4947 6.74882 11.0281 6.41168 10.7759L5.45936 11.9469ZM0.298077 6.91446C-0.0390681 7.16673 -0.0991972 7.63337 0.16377 7.95673C0.426748 8.2801 0.913239 8.33772 1.25037 8.08555L0.298077 6.91446ZM6.41168 4.22416C6.74882 3.97188 6.8089 3.50525 6.54598 3.18188C6.28296 2.85851 5.79649 2.80089 5.45936 3.05307L6.41168 4.22416ZM0.774226 6.75743C0.346655 6.75743 3.36556e-05 7.0899 3.36735e-05 7.5C3.36914e-05 7.9101 0.346655 8.24257 0.774226 8.24257L0.774226 6.75743ZM12.129 8.24257C12.5566 8.24257 12.9032 7.9101 12.9032 7.5C12.9032 7.0899 12.5566 6.75743 12.129 6.75743L12.129 8.24257ZM11.0968 15L12.129 15L12.129 13.5149L11.0968 13.5149L11.0968 15ZM12.129 15C14.2484 15 16 13.3885 16 11.3614L14.4516 11.3614C14.4516 12.5331 13.4304 13.5149 12.129 13.5149L12.129 15ZM16 11.3614L16 3.63861L14.4516 3.63861L14.4516 11.3614L16 11.3614ZM16 3.63861C16 1.61148 14.2484 -6.22816e-07 12.129 -5.30177e-07L12.129 1.48515C13.4304 1.48515 14.4516 2.46693 14.4516 3.63861L16 3.63861ZM12.129 -5.30177e-07L11.0968 -4.85056e-07L11.0968 1.48515L12.129 1.48515L12.129 -5.30177e-07ZM0.298077 8.08555L5.45936 11.9469L6.41168 10.7759L1.25037 6.91446L0.298077 8.08555ZM1.25037 8.08555L6.41168 4.22416L5.45936 3.05307L0.298077 6.91446L1.25037 8.08555ZM0.774226 8.24257L12.129 8.24257L12.129 6.75743L0.774226 6.75743L0.774226 8.24257Z" fill="black"/>
</svg>
