<svg viewBox="0 0 20 21" fill="none" xmlns="http://www.w3.org/2000/svg">
<path d="M18.4444 21L11.4444 13.65C10.8889 14.1167 10.25 14.4861 9.52778 14.7583C8.80556 15.0306 8.03704 15.1667 7.22222 15.1667C5.2037 15.1667 3.49537 14.4326 2.09722 12.9646C0.699074 11.4965 0 9.70278 0 7.58333C0 5.46389 0.699074 3.67014 2.09722 2.20208C3.49537 0.734028 5.2037 0 7.22222 0C9.24074 0 10.9491 0.734028 12.3472 2.20208C13.7454 3.67014 14.4444 5.46389 14.4444 7.58333C14.4444 8.43889 14.3148 9.24583 14.0556 10.0042C13.7963 10.7625 13.4444 11.4333 13 12.0167L20 19.3667L18.4444 21ZM7.22222 12.8333C8.61111 12.8333 9.79167 12.3229 10.7639 11.3021C11.7361 10.2812 12.2222 9.04167 12.2222 7.58333C12.2222 6.125 11.7361 4.88542 10.7639 3.86458C9.79167 2.84375 8.61111 2.33333 7.22222 2.33333C5.83333 2.33333 4.65278 2.84375 3.68056 3.86458C2.70833 4.88542 2.22222 6.125 2.22222 7.58333C2.22222 9.04167 2.70833 10.2812 3.68056 11.3021C4.65278 12.3229 5.83333 12.8333 7.22222 12.8333Z" fill="#999999"/>
</svg>
