<svg width="15" height="16" viewBox="0 0 15 16" fill="none" xmlns="http://www.w3.org/2000/svg">
<path d="M1.48515 11.0968C1.48515 10.6692 1.15268 10.3226 0.742574 10.3226C0.332465 10.3226 0 10.6692 0 11.0968H1.48515ZM15 11.0968C15 10.6692 14.6675 10.3226 14.2574 10.3226C13.8473 10.3226 13.5149 10.6692 13.5149 11.0968H15ZM8.08554 1.25037C8.33772 0.91324 8.2801 0.426748 7.95673 0.16377C7.63337 -0.0991969 7.16673 -0.0390677 6.91445 0.298077L8.08554 1.25037ZM3.05309 5.45936C2.80086 5.79649 2.85853 6.28296 3.18191 6.54598C3.50528 6.8089 3.9719 6.74882 4.22414 6.41168L3.05309 5.45936ZM8.08554 0.298077C7.83327 -0.0390677 7.36663 -0.0991969 7.04327 0.16377C6.7199 0.426748 6.66228 0.91324 6.91445 1.25037L8.08554 0.298077ZM10.7758 6.41168C11.0281 6.74882 11.4948 6.8089 11.8181 6.54598C12.1415 6.28296 12.1991 5.79649 11.9469 5.45936L10.7758 6.41168ZM8.24257 0.774226C8.24257 0.346655 7.9101 3.40013e-05 7.5 3.40013e-05C7.0899 3.40013e-05 6.75743 0.346655 6.75743 0.774226H8.24257ZM6.75743 12.129C6.75743 12.5566 7.0899 12.9032 7.5 12.9032C7.9101 12.9032 8.24257 12.5566 8.24257 12.129H6.75743ZM0 11.0968V12.129H1.48515V11.0968H0ZM0 12.129C0 14.2484 1.61146 16 3.63861 16V14.4516C2.4669 14.4516 1.48515 13.4304 1.48515 12.129H0ZM3.63861 16H11.3614V14.4516H3.63861V16ZM11.3614 16C13.3885 16 15 14.2484 15 12.129H13.5149C13.5149 13.4304 12.5331 14.4516 11.3614 14.4516V16ZM15 12.129V11.0968H13.5149V12.129H15ZM6.91445 0.298077L3.05309 5.45936L4.22414 6.41168L8.08554 1.25037L6.91445 0.298077ZM6.91445 1.25037L10.7758 6.41168L11.9469 5.45936L8.08554 0.298077L6.91445 1.25037ZM6.75743 0.774226V12.129H8.24257V0.774226H6.75743Z" fill="black"/>
</svg>
